<svg width="17" height="15" viewBox="0 0 17 15" fill="none" xmlns="http://www.w3.org/2000/svg">
<path d="M15.4972 7.96594L9.59094 13.8722C9.52993 13.9337 9.45735 13.9825 9.37738 14.0158C9.29741 14.0492 9.21163 14.0663 9.125 14.0663C9.03837 14.0663 8.95259 14.0492 8.87262 14.0158C8.79265 13.9825 8.72007 13.9337 8.65906 13.8722C8.59755 13.8112 8.54873 13.7386 8.51541 13.6586C8.4821 13.5787 8.46494 13.4929 8.46494 13.4063C8.46494 13.3196 8.4821 13.2338 8.51541 13.1539C8.54873 13.0739 8.59755 13.0013 8.65906 12.9403L13.4497 8.15625H-2.6875C-2.86155 8.15625 -3.02847 8.08711 -3.15154 7.96404C-3.27461 7.84097 -3.34375 7.67405 -3.34375 7.5C-3.34375 7.32595 -3.27461 7.15903 -3.15154 7.03596C-3.02847 6.91289 -2.86155 6.84375 -2.6875 6.84375H13.4497L8.65906 2.05969C8.53549 1.93611 8.46607 1.76851 8.46607 1.59375C8.46607 1.41899 8.53549 1.25139 8.65906 1.12781C8.78264 1.00424 8.95024 0.934814 9.125 0.934814C9.29976 0.934814 9.46736 1.00424 9.59094 1.12781L15.4972 7.03406C15.5587 7.09507 15.6075 7.16765 15.6408 7.24762C15.6742 7.32759 15.6913 7.41337 15.6913 7.5C15.6913 7.58663 15.6742 7.67241 15.6408 7.75238C15.6075 7.83235 15.5587 7.90493 15.4972 7.96594Z" fill="#60A5D5" stroke="#60A5D5"/>
</svg>
